<svg xmlns="http://www.w3.org/2000/svg" viewBox="0 0 416.86 101.5"><defs><style>.cls-1{fill:#5942e2;}</style></defs><g id="Camada_2" data-name="Camada 2"><g id="Camada_1-2" data-name="Camada 1"><path class="cls-1" d="M157.09,44.08C166.42,46.22,171,52.4,171,62.4c0,13.59-7.75,19.77-24.94,19.77H123.61a1.49,1.49,0,0,1-1.69-1.68V9.25a1.5,1.5,0,0,1,1.69-1.69h20.45c17.19,0,24.94,6.07,24.94,19.22,0,9.1-3.93,14.83-11.91,17.19Zm-27.87-3h14.84c12.24,0,17.64-4.16,17.64-13.49S156.3,14,144.06,14H129.22Zm0,34.72H146c12.24,0,17.75-4.38,17.75-14.16S158.21,47.45,146,47.45H129.22Z"/><path class="cls-1" d="M222.14,55a1.49,1.49,0,0,1-1.68,1.69H188.55v4.38c0,11.57,4.6,16.52,15.28,16.52,4.61,0,8.76-1.91,12.36-5.73.79-1,1.57-1,2.36,0L220.46,74a1.77,1.77,0,0,1,0,2.47,22.39,22.39,0,0,1-17,7.08c-14.49,0-21.8-7.19-21.8-21.46V46.44c0-13.59,7.08-21,20.23-21s20.22,7.19,20.22,21Zm-6.51-4V47.45c0-11.12-4.27-16.07-13.6-16.07s-13.48,5.17-13.48,16.07v3.49Z"/><path class="cls-1" d="M286.3,14.87a2.34,2.34,0,0,1-.45,3.59L280,23.41c-1.24,1-2.36.9-3.6-.45q-4.55-5.05-12.81-5.06c-8.42,0-13.82,4.61-13.82,11.91,0,4.83,3.26,7.31,13,9.1C277.09,41.5,282.7,47,282.7,57.79c0,15.84-10.67,25.73-27.86,25.73-11.35,0-19.78-3.48-25.17-10.34-1-1.23-.79-2.47.56-3.59L236,64.65c1.24-1.13,2.36-1,3.6.44,3.82,4.5,9.21,6.75,16.06,6.75,8.21,0,13.71-4.84,13.71-12,0-4.6-3.37-7.08-12.92-8.87-14.49-2.7-20.11-8.21-20.11-19.11,0-7.75,2.47-14,7.53-18.65s11.91-7,20.45-7C274.28,6.22,281.69,9.14,286.3,14.87Z"/><path class="cls-1" d="M290.45,82.17c-1.91,0-2.69-.9-2.36-2.81l8.1-50.67a2.44,2.44,0,0,1,2.69-2.36H306c1.91,0,2.7.9,2.36,2.81l-8.09,50.67a2.45,2.45,0,0,1-2.7,2.36Zm7.64-71.8a7.5,7.5,0,0,1,7.65-7.86c4.15,0,6.85,2.69,6.85,6.74A7.56,7.56,0,0,1,304.84,17,6.34,6.34,0,0,1,298.09,10.37Z"/><path class="cls-1" d="M362.59,42.17a30.23,30.23,0,0,1-.45,4.61l-5.51,34.61c-2.13,12.92-10.45,20.11-23.93,20.11-7.75,0-13.93-2-18.31-6-1.24-1-1.35-2.25-.23-3.6l3.48-4.61c1.13-1.35,2.36-1.46,3.6-.22a16.93,16.93,0,0,0,11.35,3.82c6.85,0,10.9-3.48,11.91-10.45l.45-2.7h-.23c-2.69,2.36-6.29,3.6-10.89,3.6-11.35,0-17.87-6.07-17.87-16.74a24,24,0,0,1,.45-5.06l2.13-13.71Q321.92,25,342.48,25C355.17,25,362.59,31.27,362.59,42.17Zm-12.81,5.06a19.71,19.71,0,0,0,.34-3.48c0-5.51-2.7-8.21-8.21-8.21-6.29,0-10,3.94-11.23,11.8l-1.91,11.8a18.78,18.78,0,0,0-.34,3.48c0,5.51,2.7,8.2,8.2,8.2,6.41,0,10.12-3.93,11.24-11.79Z"/><path class="cls-1" d="M404.05,47a23,23,0,0,0,.34-3.59c0-5.28-2.59-7.87-7.76-7.87-6.06,0-9.66,3.82-10.9,11.46l-5.16,32.81a2.46,2.46,0,0,1-2.7,2.36h-7.08c-1.91,0-2.7-.9-2.36-2.81l5.28-33.82C375.85,31.83,383.71,25,397.2,25c12.58,0,19.66,6,19.66,16.74a30.23,30.23,0,0,1-.45,4.61l-5.28,33.48a2.45,2.45,0,0,1-2.7,2.36h-7.08c-1.91,0-2.69-.9-2.36-2.81Z"/><polygon class="cls-1" points="17.76 54.33 17.76 54.33 10.54 46.97 17.76 54.33"/><path class="cls-1" d="M88.53,29.54l-7-6.69a3.22,3.22,0,0,0-.57-.42,2.93,2.93,0,0,1-.36.43L67.12,36.24l-31.9,31.6a3,3,0,0,1-4.24,0L17.76,54.33h0L10.54,47a3,3,0,0,1,0-4.16l6.28-6.57a3,3,0,0,1,4.28-.05L31.41,46.54a3,3,0,0,0,4.26,0L67.12,14.28V3.86A3.86,3.86,0,0,0,63.25,0H28.36L0,27.41V80.74A3.86,3.86,0,0,0,3.86,84.6H63.25a3.86,3.86,0,0,0,3.87-3.86V55.07L88.57,33.83A3,3,0,0,0,88.53,29.54ZM28.36,5.67V24.45a3.44,3.44,0,0,1-3.43,3.44H6.14Z"/></g></g></svg>